<svg viewBox="0 0 860 336" xmlns="http://www.w3.org/2000/svg" font-family="-apple-system, 'Segoe UI', Helvetica, Arial, sans-serif" role="img" aria-labelledby="title desc">
  <title id="title">Median token use for repeated agent workflows</title>
  <desc id="desc">Grouped bars compare table and chart workflows across fresh input, billable proxy, and output tokens. All runs succeeded.</desc>
  <text x="20" y="26" font-size="15" font-weight="600" fill="#8b949e">Median cumulative usage per completed workflow.</text>
  <text x="20" y="45" font-size="12" fill="#8b949e" opacity="0.85">Median token use for one successful three-call workflow.</text>

  <rect x="20" y="58" width="12" height="12" rx="2" fill="#8b949e"/>
  <text x="38" y="69" font-size="13" fill="#8b949e">table</text>
  <rect x="98" y="58" width="12" height="12" rx="2" fill="#f59e0b"/>
  <text x="116" y="69" font-size="13" fill="#8b949e">chart</text>

  <line x1="82" y1="85" x2="820" y2="85" stroke="#8b949e" stroke-opacity="0.18" stroke-dasharray="4 4"/>
  <text x="70" y="89" font-size="11" fill="#8b949e" text-anchor="end">200%</text>
  <line x1="82" y1="165" x2="820" y2="165" stroke="#8b949e" stroke-opacity="0.14"/>
  <text x="70" y="169" font-size="11" fill="#8b949e" text-anchor="end">100%</text>
  <line x1="82" y1="245" x2="820" y2="245" stroke="#8b949e" stroke-opacity="0.24"/>
  <text x="70" y="249" font-size="11" fill="#8b949e" text-anchor="end">0%</text>

  <g>
    <text x="195" y="268" font-size="13" font-weight="600" fill="#8b949e" text-anchor="middle">fresh input</text>
    <rect x="145" y="165" width="34" height="80" rx="3" fill="#8b949e"/>
    <rect x="211" y="163" width="34" height="82" rx="3" fill="#f59e0b"/>
    <text x="162" y="158" font-size="11" fill="#8b949e" text-anchor="middle">15.1K</text>
    <text x="228" y="156" font-size="11" fill="#f59e0b" font-weight="600" text-anchor="middle">15.6K</text>
    <text x="195" y="288" font-size="12" font-weight="700" fill="#f59e0b" text-anchor="middle">+3%</text>
  </g>

  <g>
    <text x="430" y="268" font-size="13" font-weight="600" fill="#8b949e" text-anchor="middle">billable proxy</text>
    <rect x="380" y="165" width="34" height="80" rx="3" fill="#8b949e"/>
    <rect x="446" y="160" width="34" height="85" rx="3" fill="#f59e0b"/>
    <text x="397" y="158" font-size="11" fill="#8b949e" text-anchor="middle">15.7K</text>
    <text x="463" y="153" font-size="11" fill="#f59e0b" font-weight="600" text-anchor="middle">16.5K</text>
    <text x="430" y="288" font-size="12" font-weight="700" fill="#f59e0b" text-anchor="middle">+6%</text>
  </g>

  <g>
    <text x="665" y="268" font-size="13" font-weight="600" fill="#8b949e" text-anchor="middle">output</text>
    <rect x="615" y="165" width="34" height="80" rx="3" fill="#8b949e"/>
    <rect x="681" y="88" width="34" height="157" rx="3" fill="#f59e0b"/>
    <text x="632" y="158" font-size="11" fill="#8b949e" text-anchor="middle">514</text>
    <text x="698" y="81" font-size="11" fill="#f59e0b" font-weight="600" text-anchor="middle">1.0K</text>
    <text x="665" y="288" font-size="12" font-weight="700" fill="#f59e0b" text-anchor="middle">+96%</text>
  </g>

  <text x="82" y="324" font-size="11" fill="#8b949e" opacity="0.8">64 successful runs. Billable proxy = fresh input + output. Percentages compare each chart median with its table median.</text>
</svg>
