<svg viewBox="0 0 280 280" fill="none" xmlns="http://www.w3.org/2000/svg">
<rect width="280" height="280" rx="20" fill="#01011B"/>
<path fill-rule="evenodd" clip-rule="evenodd" d="M61.5382 86V118.184H52.3075V86H20V112.092V112.184V142.892V178.307H52.3075V132.154H61.5382V178.307H93.8456V86H61.5382ZM103.075 178.307H176.921V141.384H144.613V164.461H135.383V132.154H176.921V86H103.075V178.307ZM135.383 118.307V99.8461H144.613V118.307H135.383ZM227.693 118.307V86H260V109.077L246.154 125.23L260 141.384V178.307H227.693V132.03H218.462V178.307H186.154V141.384L200 125.23L186.154 109.077V86H218.462V118.307H227.693Z" fill="#F5C0C0"/>
</svg>
